# Blender v2.76 (sub 0) OBJ File: ''
# www.blender.org
mtllib Pentagon.mtl
o Cylinder_Cylinder.001
v 0.000000 0.000000 -1.000000
v 0.000000 0.500000 -1.000000
v 0.951057 0.000000 -0.309017
v 0.951057 0.500000 -0.309017
v 0.587785 0.000000 0.809017
v 0.587785 0.500000 0.809017
v -0.587785 0.000000 0.809017
v -0.587785 0.500000 0.809017
v -0.951056 0.000000 -0.309017
v -0.951056 0.500000 -0.309017
vn 0.587800 0.000000 -0.809000
vn 0.951100 0.000000 0.309000
vn -0.000000 0.000000 1.000000
vn 0.000000 1.000000 0.000000
vn -0.587800 0.000000 -0.809000
vn -0.951100 0.000000 0.309000
vn 0.000000 -1.000000 0.000000
usemtl None
s off
f 1//1 2//1 4//1 3//1
f 3//2 4//2 6//2 5//2
f 5//3 6//3 8//3 7//3
f 4//4 2//4 10//4 8//4 6//4
f 9//5 10//5 2//5 1//5
f 7//6 8//6 10//6 9//6
f 1//7 3//7 5//7 7//7 9//7
